<?xml version="1.0" encoding="utf-8"?>
<!-- Generator: Adobe Illustrator 19.2.0, SVG Export Plug-In . SVG Version: 6.00 Build 0)  -->
<svg version="1.1" id="Layer_1" xmlns="http://www.w3.org/2000/svg" xmlns:xlink="http://www.w3.org/1999/xlink" x="0px" y="0px"
	 viewBox="0 0 349.3 262" style="enable-background:new 0 0 349.3 262;" xml:space="preserve">
<style type="text/css">
	.st0{fill:url(#SVGID_1_);}
</style>
<linearGradient id="SVGID_1_" gradientUnits="userSpaceOnUse" x1="329.6455" y1="131.4841" x2="19.6455" y2="131.4841">
	<stop  offset="0" style="stop-color:#246880"/>
	<stop  offset="1" style="stop-color:#243B80"/>
</linearGradient>
<path class="st0" d="M329.6,124.2c0-50.4-40.8-91.2-91.2-91.2H110.8c-50.4,0-91.2,40.8-91.2,91.2v14.6c0,50.4,40.8,91.2,91.2,91.2
	h127.6c50.4,0,91.2-40.8,91.2-91.2V124.2z M269.6,138.8c0,17.2-14,31.2-31.2,31.2H110.8c-17.2,0-31.2-14-31.2-31.2v-14.6
	c0-17.2,14-31.2,31.2-31.2h127.6c17.2,0,31.2,14,31.2,31.2V138.8z"/>
</svg>
